# xmcd
#
# Track frame offsets:
#	150
#	12912
#	30383
#	59808
#	74528
#	90876
#	107545
#	117572
#	134384
#	148316
#	165553
#	178736
#
# Disc length: 2861 seconds
# Revision: 0
# Processed by: cddbd v1.5.2PL0 Copyright (c) Steve Scherf et al.
# Submitted via: dBpowerAMP V12.0
#
DISCID=a90b2b0c
DTITLE=Eero Raittinen - Eeron Elpee
DYEAR=1970
DGENRE=Blues
TTITLE0=You're For Me
TTITLE1=Empty Club Blues
TTITLE2=Lost Women
TTITLE3=If You Live
TTITLE4=Basin Street Blues
TTITLE5=(There'll Be) Peace In The Valley (For Me)
TTITLE6=Caldonia
TTITLE7=I Believe To My Soul
TTITLE8=Who Can I Turn To
TTITLE9=St. Louis Blues
TTITLE10=Go To Hell
TTITLE11=Spoonful
EXTD=
EXTT0=
EXTT1=
EXTT2=
EXTT3=
EXTT4=
EXTT5=
EXTT6=
EXTT7=
EXTT8=
EXTT9=
EXTT10=
EXTT11=
PLAYORDER=
